<svg xmlns="http://www.w3.org/2000/svg" width="120" height="120" viewBox="0 0 120 120" role="img" aria-labelledby="title desc">
  <title id="title">Enoch mark</title>
  <desc id="desc">A version-control lineage grows from three software layers toward a verified adoption star.</desc>
  <rect width="120" height="120" rx="24" fill="#bd3f5d"/>
  <g fill="none" stroke="#fff" stroke-width="6.5" stroke-linecap="round" stroke-linejoin="round">
    <path d="M60 63 V57 L71 49 V41 L63 35 V32"/>
    <path d="M60 57 L47 54"/>
    <path d="M27 79 L60 63 L93 79 L60 95 Z"/>
    <path d="M27 88 L60 104 L93 88"/>
    <path d="M27 97 L60 113 L93 97"/>
  </g>
  <circle cx="47" cy="54" r="3.5" fill="#fff"/>
  <circle cx="71" cy="49" r="3.5" fill="#fff"/>
  <path d="M63 8 C64.5 15 68 18.5 75 20 C68 21.5 64.5 25 63 32 C61.5 25 58 21.5 51 20 C58 18.5 61.5 15 63 8 Z" fill="#fff"/>
</svg>
